<svg id="Layer_1" enable-background="new 0 0 512 512" height="512" viewBox="0 0 512 512" width="512" xmlns="http://www.w3.org/2000/svg"><g><g><path d="m7.606 502.254c-1.22 0-2.457-.293-3.606-.913-3.701-1.996-5.082-6.612-3.087-10.312l28.586-53.006c1.995-3.701 6.613-5.081 10.312-3.087 3.701 1.996 5.082 6.612 3.087 10.312l-28.586 53.006c-1.375 2.551-3.997 4-6.706 4z" fill="#655e67"/></g><g><path d="m34.272 451.188c-.971-.203-1.935-.501-2.882-.899-7.968-3.35-11.713-12.526-8.362-20.494l147.941-347.907c6.75-16.056 21.717-27.002 39.064-28.567l158.943-14.346c8.61-.777 16.218 5.572 16.994 14.18.777 8.609-5.571 16.218-14.18 16.994l-158.944 14.347c-5.782.522-10.771 4.171-13.021 9.522l-147.941 347.908c-2.952 7.021-10.426 10.763-17.612 9.262z" fill="#8e8391"/></g><g><path d="m386.035 54.459c-1.857-.568-3.846-.781-5.896-.599l-158.938 14.35c-17.354 1.563-32.323 12.503-39.072 28.558l-147.937 347.916c-.852 2.02-1.238 4.11-1.228 6.17-.528-.152-1.055-.345-1.573-.568-7.967-3.349-11.711-12.523-8.362-20.49l147.936-347.906c6.749-16.055 21.718-27.005 39.072-28.568l158.938-14.35c8.606-.771 16.217 5.572 16.999 14.188.041.436.061.862.061 1.299z" fill="#766d78"/></g><path d="m187.922 211.434-26.811-5.923-49.728 102.247 64.269-20.591c1.83-.572 3.198-2.102 3.564-3.984l12.761-65.647c.545-2.8-1.262-5.519-4.055-6.102z" fill="#fdc202"/><path d="m188.299 211.529-41.244 84.802-35.672 11.427 49.728-102.247 26.813 5.927c.132.03.253.06.375.091z" fill="#f0a70a"/><path d="m295.512 89.176-4.986-55.239c-.283-3.132 2.249-5.8 5.391-5.682l96.995 3.63c2.623.098 4.765 2.13 5.001 4.744l2.803 31.051c.237 2.622-1.517 5.01-4.09 5.568l-94.811 20.558c-3.066.664-6.021-1.506-6.303-4.63z" fill="#655e67"/><path d="m185.383 168.756-91.854 218.506c-1.936 4.604-6.863 7.191-11.752 6.17l-41.626-8.693c-6.423-1.341-10.029-8.209-7.486-14.258l91.863-218.505c1.936-4.604 6.863-7.191 11.752-6.17l41.617 8.691c6.423 1.343 10.028 8.21 7.486 14.259z" fill="#655e67"/><path d="m444.516 91.608c-22.367-4.671-36.703-26.586-32.033-48.945s26.579-36.704 48.945-32.033c3.443.719 10.547 3.561 16.756 6.803 3.08 1.608 2.546 6.178-.81 7.079-12.563 3.372-18.269 8.85-18.269 8.85 25.889 3.743 42.515 14.582 51.587 22.525 2.844 2.49.697 7.148-3.051 6.654-23.987-3.165-47.112 3.984-47.112 3.984s3.575 7.228 11.259 15.21c1.954 2.029 1.086 5.41-1.592 6.286-9.771 3.19-19.045 4.973-25.68 3.587z" fill="#e04955"/><path d="m465.377 89.482c-7.967 2.233-15.335 3.278-20.866 2.131-22.368-4.679-36.697-26.589-32.029-48.947 4.668-22.357 26.579-36.708 48.947-32.039 1.299.274 3.136.853 5.257 1.644-12.97 4.739-23.271 15.883-26.295 30.395-4.161 19.911 6.749 39.458 24.986 46.816z" fill="#da2f3c"/><g fill="#544f56"><path d="m330.877 87.503-29.066 6.302c-3.065.67-6.018-1.502-6.302-4.628l-4.983-55.239c-.284-3.136 2.253-5.805 5.389-5.683l31.999 1.198c-1.269 1.045-2.03 2.689-1.867 4.486z"/><path d="m158.158 150.373c-1.005.995-1.827 2.202-2.405 3.572l-98.533 234.353-17.07-3.562c-6.424-1.34-10.027-8.2-7.48-14.259l91.855-218.5c1.938-4.608 6.871-7.195 11.752-6.17z"/></g></g></svg>